ply
format ascii 1.0
comment zipper output
comment modified by flipply
element vertex 26
property float32 x
property float32 y
property float32 z
property float32 confidence
property float32 intensity
element face 0
property list uint8 int32 vertex_indices
end_header
-0.0378297 0.12794 0.00447467 0.850855 0.5 
-0.0447794 0.128887 0.00190497 0.900159 0.5 
-0.0680095 0.151244 0.0371953 0.398443 0.5 
-0.00228741 0.13015 0.0232201 0.85268 0.5 
-0.0226054 0.126675 0.00715587 0.675938 0.5 
-0.0251078 0.125921 0.00624226 0.711533 0.5 
-0.0371209 0.127449 0.0017956 0.888639 0.5
0.033213 0.112692 0.0276861 0.652757 0.5
0.0380425 0.109755 0.0161689 0.708171 0.5
-0.0255083 0.112568 0.0366767 0.454541 0.437538
-0.0245306 0.112636 0.0373469 0.448754 0.455187
0.0274031 0.12156 0.0212208 0.533079 0.5
-0.0628961 0.158419 -0.0175871 0.404517 0.5
0.0400813 0.104202 0.0221684 0.535542 0.5
0.0451532 0.0931968 0.0111604 0.579563 0.425995
-0.0324965 0.174231 -0.00238999 0.365607 0.5
-0.0804587 0.135827 0.0500319 0.499575 0.5
-0.0724944 0.126022 0.052902 0.564827 0.5
-0.0804375 0.137229 0.0490949 0.406774 0.422055
0.00799809 0.131294 0.0169006 0.748371 0.5
0.0400265 0.10701 0.00816505 0.680399 0.5
0.0371657 0.0997172 -0.00981258 0.600054 0.5
-0.0905968 0.140629 0.0221693 0.824561 0.5
-0.0843417 0.109004 0.0243603 0.690889 0.5
-0.0688709 0.156258 0.0147705 0.807492 0.5
-0.0844782 0.152284 0.0269844 0.248168 0.41865
